<?xml version="1.0" standalone="no"?>
<!DOCTYPE svg PUBLIC "-//W3C//DTD SVG 20010904//EN"
 "http://www.w3.org/TR/2001/REC-SVG-20010904/DTD/svg10.dtd">
<svg version="1.0" xmlns="http://www.w3.org/2000/svg"
 width="856.000000pt" height="856.000000pt" viewBox="0 0 856.000000 856.000000"
 preserveAspectRatio="xMidYMid meet">

<g transform="translate(0.000000,856.000000) scale(0.100000,-0.100000)"
fill="#000000" stroke="none">
<path d="M0 4280 l0 -4280 4280 0 4280 0 0 2756 0 2756 -43 -49 c-23 -28 -123
-141 -222 -253 -475 -538 -1086 -1235 -1410 -1610 -798 -923 -2124 -2434
-2434 -2773 -75 -82 -153 -168 -175 -193 -21 -24 -42 -44 -48 -44 -28 0 -393
420 -1488 1710 -311 366 -664 782 -785 925 -122 143 -441 519 -711 835 -633
743 -826 973 -1007 1200 -168 209 -202 260 -193 293 7 28 253 292 722 772 506
519 794 808 826 829 26 17 149 17 2678 10 l2651 -7 592 -581 c325 -320 694
-683 819 -808 l228 -228 0 1510 0 1510 -4280 0 -4280 0 0 -4280z"/>
<path d="M1344 6338 c-652 -672 -734 -759 -734 -785 0 -31 116 -173 525 -643
207 -238 803 -918 1057 -1206 l98 -111 676 -7 c372 -4 870 -11 1108 -16 237
-5 566 -10 732 -10 l301 0 6 242 c4 133 7 326 7 430 l0 188 -1312 2 -1313 3 4
355 c2 195 6 396 10 445 l6 90 615 7 c338 5 924 11 1303 14 l687 6 0 419 0
419 -1272 2 -1273 3 -3 308 -2 307 -388 0 -389 0 -449 -462z"/>
<path d="M6353 5388 c7 -1456 11 -1638 32 -1638 28 0 378 387 1126 1245 370
425 471 546 467 561 -3 10 -336 339 -1048 1032 l-218 212 -183 0 -182 0 6
-1412z"/>
<path d="M3014 2692 c-25 -8 -67 44 466 -572 447 -517 792 -900 810 -900 25 0
1118 1252 1229 1408 13 18 21 35 18 38 -20 20 -281 26 -1337 29 -641 2 -1175
1 -1186 -3z"/>
</g>
</svg>
