<?xml version="1.0" standalone="no"?>
<!DOCTYPE svg PUBLIC "-//W3C//DTD SVG 20010904//EN"
 "http://www.w3.org/TR/2001/REC-SVG-20010904/DTD/svg10.dtd">
<svg version="1.0" xmlns="http://www.w3.org/2000/svg"
 width="856.000000pt" height="856.000000pt" viewBox="0 0 856.000000 856.000000"
 preserveAspectRatio="xMidYMid meet">

<g transform="translate(0.000000,856.000000) scale(0.100000,-0.100000)"
fill="#000000" stroke="none">
<path d="M1587 6593 c-396 -401 -703 -720 -926 -963 -28 -30 -51 -63 -51 -74
0 -17 31 -76 55 -103 5 -6 21 -26 35 -44 14 -18 30 -37 35 -43 26 -29 83 -96
115 -135 19 -25 49 -59 65 -77 17 -18 51 -57 76 -86 26 -29 82 -93 126 -143
43 -49 105 -121 137 -160 32 -38 95 -110 139 -158 44 -48 91 -102 103 -119 13
-17 31 -38 41 -48 10 -9 38 -41 63 -70 25 -29 52 -60 61 -69 22 -22 186 -209
229 -260 19 -23 49 -56 65 -75 17 -18 53 -59 80 -91 28 -32 61 -70 75 -85 14
-15 45 -51 70 -80 25 -28 59 -67 77 -85 l31 -34 524 -6 c287 -3 624 -7 748
-10 295 -6 729 -13 1173 -18 280 -4 360 -2 370 8 10 10 14 111 16 439 l3 426
-1294 0 c-711 0 -1302 0 -1313 0 -19 0 -20 6 -18 73 4 107 14 656 13 697 0 19
2 54 5 77 l6 42 379 0 c447 0 1417 9 1888 18 l332 6 0 424 0 423 -1252 0
c-689 0 -1263 0 -1274 0 -12 0 -22 6 -21 13 0 6 -1 144 -1 305 l-2 292 -389 0
-388 0 -206 -207z"/>
<path d="M6346 6613 c2 -104 6 -764 9 -1468 5 -1213 8 -1405 24 -1405 4 0 43
35 87 78 77 77 141 146 320 347 145 162 158 177 184 205 14 15 45 51 70 80 25
29 56 65 70 80 14 15 44 49 67 77 23 27 59 67 78 89 72 79 83 91 157 179 42
50 89 104 105 121 15 17 50 57 77 90 27 32 58 66 68 74 10 8 28 29 40 47 20
26 201 238 217 253 4 3 21 26 39 52 l32 47 -81 78 c-139 132 -501 486 -769
750 -140 139 -293 288 -340 333 l-84 80 -187 0 -186 0 3 -187z"/>
<path d="M3360 2707 c-3 -4 -88 -7 -188 -7 -131 -1 -182 -5 -182 -13 0 -7 21
-34 45 -62 25 -27 63 -70 83 -95 20 -24 60 -69 87 -98 28 -29 54 -61 59 -70 5
-9 12 -19 16 -22 9 -7 98 -108 145 -165 22 -27 54 -63 70 -81 17 -18 44 -50
61 -71 18 -21 43 -49 56 -63 14 -14 49 -54 79 -90 29 -36 75 -88 102 -117 28
-29 57 -62 66 -75 9 -13 30 -37 46 -54 43 -43 205 -221 235 -256 14 -17 52
-59 86 -93 l61 -63 44 43 c24 23 71 73 104 110 33 37 80 90 105 117 25 28 52
58 60 67 8 9 44 50 80 91 35 41 74 85 85 97 24 27 41 46 115 132 32 36 68 77
81 91 13 14 44 50 69 80 24 30 58 69 75 86 16 17 48 52 70 79 22 26 50 60 63
74 13 14 37 44 55 65 18 22 59 71 92 110 33 39 73 89 89 111 16 22 35 45 42
51 7 5 16 22 19 36 7 25 6 26 -67 31 -40 3 -109 8 -153 10 -133 8 -1950 20
-1955 14z"/>
</g>
</svg>
