<?xml version="1.0" standalone="no"?>
<!DOCTYPE svg PUBLIC "-//W3C//DTD SVG 20010904//EN"
 "http://www.w3.org/TR/2001/REC-SVG-20010904/DTD/svg10.dtd">
<svg version="1.0" xmlns="http://www.w3.org/2000/svg"
 width="200.000000pt" height="218.000000pt" viewBox="0 0 200.000000 218.000000"
 preserveAspectRatio="xMidYMid meet">

<g transform="translate(0.000000,218.000000) scale(0.100000,-0.100000)"
fill="#000000" stroke="none">
<path d="M991 1988 c5 -18 6 -55 3 -84 -6 -51 -6 -53 25 -68 59 -31 31 -25
-43 9 -41 19 -92 37 -113 40 -64 11 -73 16 -73 35 0 11 8 24 18 30 16 11 15
11 -2 5 -11 -3 -23 0 -27 7 -5 7 -6 -3 -3 -23 l6 -36 -83 -5 c-138 -9 -240
-62 -264 -137 -12 -39 29 -107 87 -144 55 -35 148 -72 148 -58 0 4 15 15 33
24 l32 17 -30 -7 c-21 -4 -27 -2 -20 5 6 6 20 12 33 14 32 4 23 24 -10 20 -22
-3 -27 0 -22 12 9 24 42 19 69 -9 l25 -24 0 27 c0 18 -12 38 -39 62 -35 32
-41 34 -59 22 -20 -13 -21 -13 -12 19 5 18 14 37 19 42 5 5 44 11 87 14 61 4
99 1 164 -15 47 -12 104 -24 128 -28 30 -5 50 -16 70 -38 40 -46 52 -36 52 40
0 95 -35 154 -135 226 -66 47 -76 48 -64 6z m49 -129 c0 -5 -4 -9 -8 -9 -5 0
-9 7 -9 15 0 8 4 12 9 9 4 -3 8 -9 8 -15z"/>
<path d="M683 1935 c-10 -23 -9 -25 12 -25 18 0 21 4 17 25 -6 32 -14 32 -29
0z"/>
<path d="M730 1934 c0 -31 23 -28 28 4 2 15 -2 22 -12 22 -11 0 -16 -9 -16
-26z m17 -6 c-3 -8 -6 -5 -6 6 -1 11 2 17 5 13 3 -3 4 -12 1 -19z"/>
<path d="M840 1725 c-12 -15 -8 -16 41 -13 63 4 72 22 13 26 -28 2 -45 -2 -54
-13z"/>
<path d="M917 1683 c-12 -11 -8 -33 6 -33 6 0 19 5 27 10 13 9 13 11 0 20 -18
12 -24 12 -33 3z"/>
<path d="M1170 1651 c-14 -27 -13 -48 4 -48 8 0 11 7 9 17 -3 11 5 24 18 34
l23 16 -21 0 c-12 0 -27 -9 -33 -19z"/>
<path d="M763 1505 c2 -33 7 -41 26 -43 16 -3 24 2 28 18 4 15 11 20 24 17 12
-3 19 0 19 9 0 11 -10 13 -40 9 -30 -4 -41 -1 -49 13 -8 13 -9 8 -8 -23z"/>
<path d="M1190 1511 c0 -17 18 -21 24 -6 3 9 0 15 -9 15 -8 0 -15 -4 -15 -9z"/>
<path d="M1280 1498 c0 -6 -11 -7 -25 -4 -15 4 -25 2 -25 -4 0 -7 -19 -9 -50
-7 -32 3 -50 0 -50 -7 0 -6 21 -31 45 -55 31 -29 43 -47 36 -55 -5 -6 -12 -35
-16 -64 -4 -29 -13 -56 -20 -58 -14 -6 -28 -44 -16 -44 17 0 50 61 65 121 9
35 25 78 36 96 19 32 19 33 0 33 -21 0 -36 -16 -20 -22 7 -2 5 -11 -4 -23 -16
-22 -29 -15 -40 22 -7 20 -3 23 43 29 57 7 97 38 61 47 -11 3 -20 1 -20 -5z"/>
<path d="M1343 1458 c-79 -166 -104 -221 -100 -224 13 -14 37 18 80 104 44 92
58 142 39 142 -5 0 -13 -10 -19 -22z"/>
<path d="M725 1410 c18 -35 19 -67 3 -73 -10 -4 -10 -6 0 -6 25 -2 11 -30 -34
-68 -40 -35 -43 -41 -30 -52 9 -8 16 -9 16 -3 0 5 16 22 35 36 30 23 36 25 41
11 9 -21 -41 -66 -64 -58 -9 3 -4 -4 12 -17 26 -21 29 -22 38 -7 5 10 23 24
41 33 l32 16 -32 -30 c-18 -17 -33 -35 -33 -41 0 -17 18 -22 27 -6 7 11 17 -1
40 -48 23 -44 38 -63 53 -64 17 -2 20 4 20 44 0 39 2 44 18 37 31 -13 86 -16
112 -4 25 10 25 10 -3 5 -16 -3 -38 -3 -48 0 -18 6 -15 16 42 123 34 64 71
133 82 152 l20 35 -32 -36 c-51 -60 -114 -96 -181 -104 -32 -4 -67 -4 -77 -1
-11 3 -38 40 -62 81 -41 73 -67 105 -36 45z"/>
<path d="M805 1431 c-16 -3 -31 -14 -33 -23 -3 -14 1 -15 35 -2 21 7 56 14 78
14 32 1 36 3 20 10 -23 10 -57 10 -100 1z"/>
<path d="M786 1374 c-5 -12 1 -15 31 -12 48 4 57 28 10 28 -22 0 -37 -6 -41
-16z"/>
<path d="M624 1278 l-19 -23 23 19 c21 18 27 26 19 26 -2 0 -12 -10 -23 -22z"/>
<path d="M1320 1235 c-14 -8 -50 -19 -81 -25 -31 -6 -78 -25 -105 -42 -27 -18
-52 -31 -56 -30 -5 1 -8 -3 -8 -9 0 -6 -10 -25 -22 -42 l-23 -32 29 18 c39 26
57 7 20 -22 -15 -11 -22 -21 -16 -21 6 0 17 7 26 15 13 13 15 13 18 -3 2 -11
13 1 34 38 31 55 70 98 79 88 6 -5 31 -115 40 -172 4 -21 10 -35 15 -30 4 5 1
47 -7 93 l-14 84 52 53 c30 30 51 54 49 53 -3 0 -16 -7 -30 -14z m-30 -38 c0
-2 -11 -14 -25 -27 l-25 -24 4 25 c2 13 5 25 5 27 1 3 41 3 41 -1z"/>
<path d="M1337 1192 c-14 -27 -29 -68 -33 -93 -9 -57 8 -41 24 25 7 27 22 61
33 77 10 15 15 30 11 33 -5 3 -21 -16 -35 -42z"/>
<path d="M625 1183 c-4 -21 -20 -58 -36 -82 -18 -27 -29 -56 -28 -75 1 -30 1
-30 8 5 4 20 22 56 39 80 18 23 32 49 32 56 0 19 13 16 46 -9 105 -79 130
-123 174 -311 17 -76 34 -136 37 -134 2 3 0 22 -6 44 -6 21 -20 85 -31 143
-29 145 -47 177 -140 255 -43 36 -80 65 -83 65 -3 0 -8 -17 -12 -37z"/>
<path d="M1359 1153 c-14 -29 -20 -48 -12 -42 18 16 16 5 -7 -41 -11 -22 -20
-45 -20 -52 -1 -20 -67 -122 -71 -109 -3 7 -5 -7 -5 -31 -1 -34 0 -38 7 -20 5
12 26 48 47 80 57 83 66 103 47 96 -13 -5 -11 1 5 29 12 19 28 41 36 47 7 7
14 22 14 34 -1 21 -1 21 -15 2 -17 -23 -20 -14 -4 15 5 11 9 25 7 32 -2 7 -15
-11 -29 -40z"/>
<path d="M1179 1084 c-6 -16 -19 -52 -30 -80 -10 -27 -35 -77 -55 -110 -20
-32 -37 -71 -39 -85 -1 -14 -4 -30 -7 -35 -3 -5 -6 -26 -6 -46 -1 -27 3 -38
13 -38 8 0 15 5 15 11 0 5 -4 7 -10 4 -5 -3 -10 -1 -10 4 0 6 4 11 9 11 15 0
23 51 10 66 -9 11 -5 21 19 49 35 40 64 100 93 198 21 68 20 106 -2 51z"/>
<path d="M1660 1095 c0 -8 2 -15 4 -15 2 0 6 7 10 15 3 8 1 15 -4 15 -6 0 -10
-7 -10 -15z"/>
<path d="M1698 1089 c6 -7 12 -20 12 -29 0 -9 9 -25 20 -35 11 -10 20 -13 20
-7 0 7 -4 12 -10 12 -5 0 -13 14 -18 32 -4 17 -14 34 -22 36 -12 4 -13 2 -2
-9z"/>
<path d="M1741 1064 c0 -11 3 -14 6 -6 3 7 2 16 -1 19 -3 4 -6 -2 -5 -13z"/>
<path d="M1642 1033 c-7 -22 -30 -61 -52 -86 -27 -30 -40 -54 -40 -74 0 -27 1
-27 13 -7 6 12 24 37 38 55 29 38 63 121 57 140 -2 6 -9 -6 -16 -28z"/>
<path d="M1483 1013 c-26 -20 -49 -40 -51 -45 -2 -4 -8 -8 -13 -8 -13 0 -64
-59 -117 -134 -52 -74 -67 -100 -54 -95 8 4 122 131 162 182 8 11 41 46 73 78
32 33 56 59 53 59 -2 0 -26 -16 -53 -37z"/>
<path d="M532 980 c0 -14 2 -19 5 -12 2 6 2 18 0 25 -3 6 -5 1 -5 -13z"/>
<path d="M891 984 c0 -11 3 -14 6 -6 3 7 2 16 -1 19 -3 4 -6 -2 -5 -13z"/>
<path d="M1076 983 c-6 -14 -5 -15 5 -6 7 7 10 15 7 18 -3 3 -9 -2 -12 -12z"/>
<path d="M562 955 c0 -16 2 -22 5 -12 2 9 2 23 0 30 -3 6 -5 -1 -5 -18z"/>
<path d="M1040 928 c-22 -36 -24 -44 -12 -52 5 -3 16 15 25 40 19 52 14 57
-13 12z"/>
<path d="M901 934 c0 -11 3 -14 6 -6 3 7 2 16 -1 19 -3 4 -6 -2 -5 -13z"/>
<path d="M1759 914 c-9 -20 -16 -64 -17 -98 -1 -43 1 -55 8 -41 5 11 9 38 9
61 1 22 6 45 12 51 6 6 9 23 7 38 -3 26 -3 26 -19 -11z"/>
<path d="M551 917 c-1 -4 13 -28 30 -55 17 -26 28 -38 24 -27 -4 11 -10 28
-12 38 -3 9 -9 17 -14 17 -5 0 -6 8 -3 18 5 13 4 14 -4 3 -8 -11 -10 -11 -15
0 -3 8 -6 11 -6 6z"/>
<path d="M621 910 c0 -8 4 -24 9 -35 5 -13 9 -14 9 -5 0 8 -4 24 -9 35 -5 13
-9 14 -9 5z"/>
<path d="M912 890 c0 -14 2 -19 5 -12 2 6 2 18 0 25 -3 6 -5 1 -5 -13z"/>
<path d="M1169 871 c-20 -16 -22 -22 -11 -33 11 -11 12 -10 7 3 -4 10 -2 20 4
24 7 3 8 0 5 -9 -4 -10 -1 -16 7 -16 9 0 10 -3 4 -8 -17 -12 -13 -60 5 -57 19
2 26 35 8 35 -8 1 -6 6 6 15 13 10 17 21 12 39 -8 31 -16 32 -47 7z"/>
<path d="M921 824 c0 -21 4 -48 9 -59 5 -12 6 1 3 35 -7 66 -13 79 -12 24z"/>
<path d="M1712 835 c-17 -37 -14 -45 4 -12 9 16 14 31 11 33 -2 2 -9 -7 -15
-21z"/>
<path d="M579 825 c17 -32 54 -73 47 -52 -3 10 -6 23 -6 28 0 5 -4 8 -9 7 -5
-2 -17 6 -26 17 l-16 20 10 -20z"/>
<path d="M1561 824 c0 -11 3 -14 6 -6 3 7 2 16 -1 19 -3 4 -6 -2 -5 -13z"/>
<path d="M1595 818 c-4 -13 -16 -34 -26 -47 -18 -23 -28 -105 -11 -85 13 13
55 145 49 151 -3 2 -8 -6 -12 -19z"/>
<path d="M467 807 c32 -12 78 -66 145 -172 21 -33 38 -55 38 -50 0 14 -51 98
-103 170 -37 51 -48 60 -78 62 l-34 3 32 -13z"/>
<path d="M1095 812 c-15 -11 -17 -32 -2 -26 8 3 14 11 14 19 0 8 -1 15 -1 15
-1 0 -5 -4 -11 -8z"/>
<path d="M1130 805 c-10 -12 -10 -18 1 -31 12 -14 14 -14 26 2 27 37 2 64 -27
29z m30 -6 c0 -5 -5 -7 -12 -3 -8 5 -9 1 -4 -12 5 -14 4 -16 -5 -7 -6 6 -8 16
-5 22 9 14 26 14 26 0z"/>
<path d="M1007 803 c-4 -3 -7 -11 -7 -17 0 -6 5 -5 12 2 6 6 9 14 7 17 -3 3
-9 2 -12 -2z"/>
<path d="M402 772 c-81 -67 -92 -125 -34 -182 l37 -37 -50 4 -50 3 40 -13 c27
-9 35 -15 25 -20 -8 -3 -2 -3 14 0 19 4 27 2 22 -5 -4 -6 2 -8 16 -4 13 3 19
1 15 -5 -5 -7 1 -9 15 -5 16 4 19 2 13 -8 -5 -8 -4 -11 3 -6 5 3 12 2 14 -2 1
-5 26 -11 53 -14 28 -3 42 -4 33 -1 -10 2 -15 10 -11 19 4 10 -4 14 -30 14
-39 0 -89 19 -82 30 3 4 -6 15 -19 23 -12 9 -31 32 -40 51 -22 46 -13 94 25
142 42 53 40 57 -9 16z"/>
<path d="M1094 766 c-5 -13 -3 -21 5 -24 12 -4 36 -50 33 -64 -3 -11 16 -10
23 2 3 5 12 7 20 4 9 -4 18 3 24 17 5 13 10 18 10 11 1 -7 5 -11 10 -7 10 6
31 -25 31 -44 0 -22 -30 -11 -31 12 0 13 -6 5 -15 -23 -7 -25 -14 -46 -14 -47
0 -2 9 -3 21 -3 11 0 17 -4 14 -10 -3 -5 -1 -10 4 -10 6 0 11 10 11 23 0 12
16 47 35 77 19 30 35 61 35 70 -1 8 -7 1 -14 -15 -14 -33 -52 -72 -40 -41 4
10 0 18 -10 22 -9 3 -16 17 -16 29 0 33 -17 40 -30 14 -9 -15 -19 -20 -36 -16
-13 2 -21 0 -18 -4 3 -5 0 -9 -5 -9 -6 0 -11 4 -11 8 0 5 -6 17 -14 28 -14 19
-15 19 -22 0z m89 -43 c-7 -2 -13 -9 -13 -14 0 -6 6 -7 13 -3 6 4 9 3 4 -1
-15 -17 -47 -15 -47 3 0 13 2 14 9 4 7 -11 9 -11 14 2 4 9 12 16 19 15 10 0
10 -2 1 -6z"/>
<path d="M1722 693 c-16 -78 -53 -151 -109 -213 -55 -62 -129 -114 -149 -106
-8 3 -13 2 -9 -3 3 -5 0 -11 -7 -13 -9 -3 -9 -6 0 -12 7 -4 12 -2 12 3 0 6 4
11 10 11 5 0 7 -6 4 -13 -6 -17 56 -76 108 -102 24 -12 44 -29 46 -38 6 -31
-53 -19 -142 28 -47 25 -88 45 -90 45 -2 0 -6 -7 -10 -15 -4 -11 18 -27 84
-60 49 -25 97 -45 107 -45 14 0 13 -4 -7 -25 -13 -14 -33 -25 -44 -25 -38 0
-133 58 -229 140 -39 33 -40 33 -24 8 l17 -28 -34 0 c-18 0 -80 -10 -137 -22
-106 -23 -177 -26 -351 -17 -91 5 -198 -6 -225 -24 -20 -13 -27 59 -12 131
l14 66 -113 38 c-63 21 -124 38 -136 38 -29 0 -116 -67 -116 -90 0 -27 12 -31
34 -11 15 14 39 21 81 24 l60 3 -70 2 -70 3 24 19 c31 27 70 25 169 -6 l84
-27 -8 -56 c-4 -31 -7 -78 -8 -106 -1 -47 -3 -50 -31 -56 -16 -4 -60 -7 -96
-8 -65 -1 -67 -2 -107 -45 -22 -24 -45 -53 -51 -65 -11 -19 -9 -21 22 -21 18
0 38 5 45 12 9 9 15 9 24 0 8 -8 22 -1 56 28 25 22 49 40 54 40 22 0 91 -43
95 -59 4 -16 16 -18 81 -19 l77 -1 -40 19 c-22 11 -46 20 -52 20 -13 0 -18 22
-8 32 3 3 56 -12 118 -33 62 -21 130 -38 152 -38 l40 1 -58 20 c-32 11 -57 21
-55 23 2 1 24 6 51 9 44 7 50 5 78 -23 32 -33 66 -39 88 -18 11 10 13 10 7 0
-5 -9 0 -13 13 -13 22 0 28 14 10 25 -18 12 -27 49 -17 70 24 47 61 74 117 85
31 6 78 18 104 27 44 14 52 14 91 -1 23 -9 51 -24 62 -34 10 -10 40 -31 67
-47 41 -26 45 -32 31 -42 -9 -6 -23 -9 -32 -6 -16 6 -16 5 0 -13 9 -10 18 -30
21 -44 4 -21 4 -20 6 7 1 42 12 47 90 45 51 -2 73 -8 104 -28 36 -24 38 -24
27 -4 -20 38 1 36 35 -3 28 -32 38 -37 69 -35 40 2 42 6 21 34 -19 25 -19 40
0 20 8 -8 15 -19 15 -25 0 -6 3 -11 8 -11 13 1 49 35 56 53 10 30 -4 39 -23
16 -28 -35 -61 -19 -110 51 -23 33 -40 60 -37 60 3 0 22 -15 43 -33 l38 -32
-34 40 c-28 32 -32 41 -18 43 14 3 14 7 4 24 -9 16 -9 22 1 25 18 7 15 23 -5
23 -12 0 -14 3 -6 11 6 6 21 8 34 4 13 -5 26 -8 29 -7 3 0 12 -5 20 -11 13
-10 13 -10 1 5 -7 10 -16 16 -20 13 -4 -2 -20 5 -37 17 -16 11 -21 17 -10 14
13 -5 17 -2 13 9 -5 11 0 13 24 8 22 -4 39 0 62 17 l32 23 -27 -30 c-16 -16
-28 -32 -28 -36 0 -4 18 -6 39 -5 23 2 36 7 33 13 -4 6 -9 30 -12 55 -4 36 -9
44 -23 42 -13 -2 -17 5 -18 30 -1 20 -3 25 -6 12 -3 -16 -10 -20 -33 -16 -37
5 -37 10 -2 48 22 24 28 41 30 89 1 33 5 68 8 79 4 12 2 16 -5 12 -6 -4 -11
-19 -11 -34 0 -66 -44 -177 -66 -168 -8 3 -14 2 -14 -2 -5 -82 -13 -128 -25
-142 -8 -9 -15 -23 -15 -31 0 -9 -13 -27 -28 -42 l-28 -26 -32 19 c-18 11 -39
17 -45 14 -7 -4 -9 -4 -5 1 4 4 -8 27 -28 50 l-34 42 31 7 c20 4 38 1 48 -6
14 -11 14 -11 3 4 -12 15 -8 19 35 38 36 15 52 29 61 52 6 17 9 35 6 39 -3 5
-1 9 5 9 15 0 68 204 59 230 -2 6 -9 -15 -16 -47z m-1192 -342 c0 -12 -20 -25
-27 -18 -7 7 6 27 18 27 5 0 9 -4 9 -9z m980 -21 c6 -11 7 -20 2 -20 -10 0
-32 21 -32 32 0 16 19 8 30 -12z m-990 -20 c0 -5 -4 -10 -10 -10 -5 0 -10 5
-10 10 0 6 5 10 10 10 6 0 10 -4 10 -10z m-10 -30 c0 -5 -5 -10 -11 -10 -5 0
-7 5 -4 10 3 6 8 10 11 10 2 0 4 -4 4 -10z m-5 -30 c3 -5 1 -10 -4 -10 -6 0
-11 5 -11 10 0 6 2 10 4 10 3 0 8 -4 11 -10z m5 -40 c0 -5 -4 -10 -10 -10 -5
0 -10 5 -10 10 0 6 5 10 10 10 6 0 10 -4 10 -10z m0 -36 c0 -8 -5 -12 -10 -9
-6 4 -8 11 -5 16 9 14 15 11 15 -7z m237 -41 l21 -26 13 22 c9 13 24 21 43 21
24 0 27 -2 16 -15 -7 -8 -17 -12 -22 -9 -12 7 -49 -26 -42 -37 3 -5 -2 -6 -10
-3 -8 3 -30 1 -50 -5 -21 -5 -34 -6 -31 0 4 5 2 9 -4 9 -5 0 -23 12 -40 26
-17 14 -31 21 -31 16 0 -6 12 -20 27 -31 36 -29 25 -34 -30 -15 -32 11 -47 21
-47 34 0 36 40 51 115 43 38 -3 55 -11 72 -30z m975 -14 c14 -27 21 -46 14
-40 -17 14 -59 91 -49 91 4 0 20 -23 35 -51z m-1202 21 c0 -5 -4 -10 -10 -10
-5 0 -10 5 -10 10 0 6 5 10 10 10 6 0 10 -4 10 -10z m-30 -39 l0 -29 -40 15
c-41 16 -42 27 -5 36 40 9 45 7 45 -22z m27 -3 c-3 -8 -6 -5 -6 6 -1 11 2 17
5 13 3 -3 4 -12 1 -19z m400 0 c40 -18 45 -30 21 -55 l-21 -22 -34 29 c-18 17
-38 30 -43 30 -5 0 -7 7 -4 15 7 18 43 19 81 3z m929 -40 c4 -6 3 -8 -4 -4 -5
3 -12 0 -15 -6 -2 -7 -8 -9 -13 -5 -5 4 -2 12 6 17 19 12 17 12 26 -2z m-1531
-18 c-3 -5 -10 -10 -16 -10 -5 0 -9 5 -9 10 0 6 7 10 16 10 8 0 12 -4 9 -10z
m202 -12 c-3 -8 -6 -5 -6 6 -1 11 2 17 5 13 3 -3 4 -12 1 -19z m1261 -13 c-3
-3 -9 2 -12 12 -6 14 -5 15 5 6 7 -7 10 -15 7 -18z"/>
<path d="M1640 715 c-13 -14 -21 -27 -18 -30 2 -3 15 6 28 20 13 14 21 27 18
30 -2 3 -15 -6 -28 -20z"/>
<path d="M417 688 c-9 -53 6 -101 43 -133 l23 -20 -7 20 c-4 11 -10 35 -13 53
-3 17 -12 32 -19 32 -8 0 -14 16 -16 48 l-3 47 -8 -47z"/>
<path d="M640 713 c0 -4 5 -15 10 -23 8 -13 10 -13 10 2 0 9 -4 20 -10 23 -5
3 -10 3 -10 -2z"/>
<path d="M831 684 c0 -11 3 -14 6 -6 3 7 2 16 -1 19 -3 4 -6 -2 -5 -13z"/>
<path d="M1111 665 c0 -16 4 -54 8 -83 6 -42 4 -55 -9 -67 -25 -22 -30 -19
-30 23 0 24 -3 32 -9 23 -11 -18 -17 -6 -25 52 -4 27 -9 47 -11 45 -1 -1 -6
-53 -10 -115 -6 -106 -6 -111 12 -107 10 3 23 15 28 27 6 12 24 25 42 29 l33
8 -5 63 c-3 34 -8 70 -11 79 -4 14 -1 16 13 12 14 -4 15 -4 4 4 -7 5 -17 16
-22 23 -6 10 -9 5 -8 -16z"/>
<path d="M1330 682 c0 -5 -12 -13 -27 -19 -22 -8 -24 -11 -8 -11 11 0 30 -3
43 -7 18 -6 22 -3 22 13 0 11 -7 22 -15 26 -8 3 -15 2 -15 -2z"/>
<path d="M845 611 c7 -52 65 -168 75 -151 4 7 -7 37 -23 68 -17 31 -37 72 -44
92 l-14 35 6 -44z"/>
<path d="M1747 643 c-4 -3 -7 -15 -7 -27 0 -20 0 -20 15 0 8 10 15 22 15 27 0
9 -14 9 -23 0z"/>
<path d="M1264 611 c-10 -26 -9 -30 13 -40 33 -15 43 -14 43 7 0 13 -2 14 -9
4 -6 -11 -9 -9 -14 7 -2 11 0 22 7 25 6 2 4 5 -6 5 -9 1 -18 6 -20 11 -2 6 -8
-2 -14 -19z"/>
<path d="M1510 620 c0 -5 -8 -10 -17 -10 -15 0 -16 -2 -3 -10 22 -14 26 -12
27 10 1 11 0 20 -3 20 -2 0 -4 -4 -4 -10z"/>
<path d="M1440 610 c-8 -5 -11 -12 -8 -16 10 -9 38 3 38 16 0 12 -10 13 -30 0z"/>
<path d="M475 590 c3 -5 12 -10 20 -10 8 0 31 -20 52 -45 36 -43 73 -59 73
-32 0 14 -39 53 -80 80 -27 18 -75 23 -65 7z"/>
<path d="M1486 568 c9 -31 12 -34 27 -18 9 10 9 11 0 6 -7 -4 -13 -2 -13 3 0
6 6 11 13 11 8 0 7 4 -3 10 -24 16 -32 12 -24 -12z"/>
<path d="M1195 570 c-3 -5 -12 -7 -20 -3 -8 3 -15 3 -15 0 0 -13 30 -14 40 -1
7 8 10 14 7 14 -3 0 -8 -4 -12 -10z"/>
<path d="M1455 560 c3 -5 -1 -10 -10 -10 -9 0 -13 -5 -10 -10 4 -6 12 -7 18
-4 7 4 8 3 4 -2 -9 -10 -14 -11 -52 -13 -14 0 -25 -6 -25 -13 0 -6 3 -9 6 -5
4 3 13 -1 21 -9 9 -8 18 -12 21 -9 4 3 0 10 -8 15 -13 9 -13 10 0 11 25 2 45
-3 51 -13 10 -15 18 15 12 45 -3 15 -12 27 -20 27 -8 0 -11 -4 -8 -10z"/>
<path d="M295 530 l-20 -9 20 0 c11 0 27 4 35 9 13 9 13 10 0 9 -8 0 -24 -4
-35 -9z"/>
<path d="M730 538 c0 -2 9 -27 20 -56 11 -29 20 -61 20 -72 0 -14 7 -20 24
-20 l25 0 -24 61 c-25 64 -41 89 -56 89 -5 0 -9 -1 -9 -2z"/>
<path d="M222 523 c-6 -2 -10 -8 -7 -13 3 -4 -2 -13 -10 -20 -17 -14 -20 -30
-5 -30 6 0 10 6 10 13 0 8 9 22 20 32 22 20 28 7 8 -14 -11 -11 -9 -11 10 -2
36 19 13 50 -26 34z"/>
<path d="M1335 493 c47 -36 95 -47 115 -27 5 5 -6 9 -28 9 -25 1 -50 10 -73
28 -20 15 -42 27 -49 27 -7 0 9 -16 35 -37z"/>
<path d="M1496 515 c-9 -26 -7 -32 5 -12 6 10 9 21 6 23 -2 3 -7 -2 -11 -11z"/>
<path d="M642 497 c-17 -18 -20 -26 -10 -30 8 -3 4 -9 -12 -16 l-25 -11 28 5
c34 7 35 -8 2 -23 -14 -6 -25 -16 -25 -22 0 -6 -4 -8 -10 -5 -5 3 -10 2 -10
-4 0 -16 18 -22 23 -9 4 10 7 11 18 1 15 -14 38 -16 55 -5 9 5 9 24 0 75 l-11
69 -23 -25z"/>
<path d="M1240 438 c24 -24 54 -61 69 -83 14 -22 27 -42 29 -45 2 -2 7 2 11 9
18 29 -87 161 -129 161 -20 0 -18 -4 20 -42z"/>
<path d="M1025 404 c4 -10 11 -35 15 -54 l8 -35 1 33 1 33 30 -16 c17 -9 40
-13 54 -9 24 6 24 7 8 24 -9 9 -30 20 -47 23 -16 3 -41 9 -54 13 -21 6 -23 5
-16 -12z m102 -20 c-3 -3 -12 -4 -19 -1 -8 3 -5 6 6 6 11 1 17 -2 13 -5z"/>
<path d="M970 402 c0 -10 21 -32 32 -32 16 0 8 19 -12 30 -11 6 -20 7 -20 2z"/>
<path d="M950 380 c0 -5 5 -12 11 -15 6 -4 8 -13 5 -21 -3 -8 3 -29 14 -47 11
-17 20 -27 20 -21 0 5 -6 19 -14 30 -9 12 -11 23 -5 30 5 6 7 18 3 27 -6 17
-34 31 -34 17z"/>
<path d="M1890 299 c0 -6 -10 -19 -22 -29 -18 -14 -27 -16 -38 -7 -8 6 -2 -2
13 -19 27 -28 29 -28 43 -10 13 18 20 76 9 76 -3 0 -5 -5 -5 -11z"/>
<path d="M1195 290 c-3 -5 -16 -10 -28 -11 -13 0 -16 -3 -9 -6 8 -3 24 -1 35
5 12 6 29 13 37 15 9 4 7 6 -7 6 -12 1 -25 -3 -28 -9z"/>
<path d="M1070 275 c-10 -12 -16 -13 -26 -4 -11 9 -14 8 -14 -6 0 -11 -5 -15
-15 -11 -8 3 -15 1 -15 -4 0 -20 59 -11 70 11 9 16 14 18 26 8 12 -10 17 -10
27 0 9 10 8 11 -5 6 -11 -4 -18 -2 -18 4 0 16 -15 14 -30 -4z"/>
<path d="M1820 230 c6 -11 13 -20 16 -20 2 0 0 9 -6 20 -6 11 -13 20 -16 20
-2 0 0 -9 6 -20z"/>
<path d="M1781 171 c36 -45 41 -49 32 -23 -6 15 -3 15 18 -3 l24 -20 -25 29
c-14 15 -38 35 -54 43 l-28 15 33 -41z"/>
<path d="M1877 160 c26 -27 45 -59 49 -80 l7 -35 -22 25 c-12 14 -21 21 -20
15 3 -22 -2 -33 -26 -59 l-24 -26 35 0 c22 0 37 6 40 15 8 20 24 19 24 -2 0
-9 3 -14 6 -10 3 3 1 30 -5 59 -10 45 -20 62 -59 99 l-47 44 42 -45z"/>
<path d="M203 142 c-42 -36 -73 -93 -73 -129 0 -10 15 8 34 40 18 31 42 67 53
80 20 22 37 47 31 47 -2 0 -22 -17 -45 -38z"/>
<path d="M120 150 c-6 -11 -8 -20 -4 -20 3 0 1 -7 -6 -15 -7 -9 -10 -19 -6
-22 10 -10 27 19 21 35 -2 6 0 12 4 12 5 0 11 7 15 15 8 22 -12 18 -24 -5z"/>
</g>
</svg>
