<?xml version="1.0" standalone="no"?>
<!DOCTYPE svg PUBLIC "-//W3C//DTD SVG 20010904//EN"
 "http://www.w3.org/TR/2001/REC-SVG-20010904/DTD/svg10.dtd">
<svg version="1.0" xmlns="http://www.w3.org/2000/svg"
 width="642.000000pt" height="642.000000pt" viewBox="0 0 642.000000 642.000000"
 preserveAspectRatio="xMidYMid meet">

<g transform="translate(0.000000,642.000000) scale(0.100000,-0.100000)"
fill="#000000" stroke="none">
<path d="M979 5153 c-233 -237 -576 -588 -619 -633 -14 -15 -65 -69 -115 -121
-158 -166 -215 -229 -215 -240 0 -43 215 -304 1119 -1363 75 -87 179 -209 231
-270 52 -62 116 -137 141 -167 134 -157 265 -311 674 -794 545 -643 815 -956
906 -1052 l68 -72 105 112 c57 62 213 236 346 387 134 151 257 291 274 310 17
19 110 125 206 235 96 110 177 202 180 205 3 3 60 68 127 145 66 77 162 187
213 245 51 58 144 165 209 239 64 74 136 157 161 185 25 28 85 98 135 156 49
58 92 107 95 110 5 5 173 199 220 254 14 17 63 73 110 125 47 53 116 132 154
176 38 44 87 100 110 125 23 25 84 95 136 155 52 61 116 133 141 160 26 28 66
73 90 101 43 51 158 180 211 239 16 16 28 35 28 41 0 6 -174 181 -386 390
-213 208 -491 481 -618 606 l-231 227 -1977 1 c-1087 0 -1983 2 -1991 6 -9 3
-92 -74 -238 -223z m951 -283 l0 -230 955 0 955 0 0 -318 0 -319 -632 -6
c-347 -4 -786 -7 -974 -7 l-343 0 -5 -32 c-3 -18 -7 -169 -10 -335 l-5 -303
984 0 985 0 0 -324 c0 -184 -4 -327 -9 -330 -5 -4 -222 -2 -483 3 -260 6 -734
13 -1053 17 l-580 7 -290 329 c-663 752 -938 1072 -964 1122 -13 24 -11 28 24
68 79 89 359 382 604 630 l254 258 294 0 293 0 0 -230z m3347 -2 c131 -128
331 -324 444 -436 113 -111 220 -214 238 -229 17 -14 31 -32 31 -39 0 -7 -51
-70 -112 -141 -62 -71 -216 -248 -343 -394 -390 -448 -632 -718 -724 -806 -23
-22 -25 -23 -35 -6 -7 12 -12 396 -14 1151 l-4 1132 140 0 141 0 238 -232z
m-1283 -2848 c88 -5 163 -13 167 -17 7 -7 -48 -76 -240 -302 -64 -76 -360
-414 -559 -639 -12 -14 -50 -54 -83 -90 l-61 -64 -25 24 c-40 37 -276 298
-432 478 -78 91 -180 208 -225 260 -172 199 -282 326 -295 343 -13 16 29 17
790 17 442 0 876 -5 963 -10z"/>
</g>
</svg>
